
        <svg xmlns="http://www.w3.org/2000/svg" xmlns:xlink="http://www.w3.org/1999/xlink" version="1.1" width="3300" 
        height="2579.162411581017" viewBox="0 0 3300 2579.162411581017">
			
			<g transform="scale(15) translate(10, 10)">
				<defs id="SvgjsDefs1949"><linearGradient id="SvgjsLinearGradient1954"><stop id="SvgjsStop1955" stop-color="#006838" offset="0"></stop><stop id="SvgjsStop1956" stop-color="#96cf24" offset="1"></stop></linearGradient></defs><g id="SvgjsG1950" featureKey="symbolFeature-0" transform="matrix(1.1111172334984825,0,0,1.1111172334984825,44.95872262886648,-5.5566977340149535)" fill="url(#SvgjsLinearGradient1954)"><path xmlns="http://www.w3.org/2000/svg" d="M86.229,50.001l0.721-0.723c10.115-10.115,10.116-26.574,0-36.69s-26.575-10.116-36.691,0l-0.722,0.721l-0.721-0.721  C38.7,2.472,22.24,2.472,12.124,12.588C2.008,22.704,2.008,39.163,12.125,49.278l0.721,0.723l-0.721,0.721  C2.008,60.838,2.008,77.296,12.124,87.414c10.117,10.115,26.577,10.115,36.692,0l0.721-0.722l0.722,0.722  c10.116,10.115,26.575,10.115,36.691,0c10.116-10.118,10.115-26.576,0-36.692L86.229,50.001z M53.453,15.783  c8.354-8.354,21.947-8.354,30.3,0c8.354,8.354,8.354,21.948,0.001,30.301L59.431,70.407c-1.862,1.863-2.316,4.073-0.109,6.306  l0.831,0.806c4.66,4.66,12.242,4.66,16.902,0s4.66-12.243,0.001-16.903l-0.722-0.722l1.751-1.75l0.722,0.722  c5.627,5.625,5.627,14.78,0,20.405c-5.625,5.625-14.781,5.625-20.406,0c0,0-0.354-0.298-0.833-0.78  c-0.44-0.447-4.823-4.899,0.112-9.835l24.322-24.323c7.389-7.388,7.389-19.409,0-26.798c-7.388-7.387-19.408-7.387-26.796,0.001  l-0.723,0.721l-1.752-1.751L53.453,15.783z M73.86,74.325c-2.899,2.897-7.615,2.897-10.514,0l-0.721-0.722l10.513-10.513l0.722,0.72  C76.758,66.71,76.758,71.425,73.86,74.325z M15.319,15.783c8.354-8.354,21.948-8.354,30.302,0l24.321,24.321l-1.752,1.754  L43.868,17.535c-7.389-7.388-19.408-7.388-26.796,0c-7.389,7.388-7.389,19.409,0,26.797l0.721,0.722l-1.752,1.752l-0.722-0.721  C6.965,37.731,6.965,24.138,15.319,15.783z M62.626,26.398l0.721-0.722c2.898-2.898,7.614-2.898,10.514,0  c2.897,2.898,2.897,7.613,0,10.514l-0.722,0.721L62.626,26.398z M24.337,58.297l-2.319,2.318c-4.661,4.66-4.66,12.243,0,16.903  c4.659,4.66,12.242,4.66,16.902,0l0.722-0.722c3.561-3.559-0.725-7.104-2.787-9.167l-1.343-1.354l-6.383-6.383l1.752-1.75  l8.49,8.489l0.67,0.672c6.242,6.239,1.837,10.76,1.353,11.244l-0.722,0.722c-5.626,5.628-14.78,5.625-20.407,0  c-5.625-5.625-5.625-14.78,0.001-20.407L44.59,34.54l1.751,1.754L34.23,48.403L24.337,58.297z M25.934,63.091l10.513,10.51  l-0.722,0.723c-2.899,2.897-7.614,2.899-10.512,0c-2.898-2.898-2.898-7.615,0-10.513L25.934,63.091z M49.536,39.488l10.512,10.513  L49.536,60.512L39.023,50.001L49.536,39.488z M38.921,22.483c-4.66-4.662-12.243-4.66-16.902,0c-4.66,4.658-4.661,12.242,0,16.902  l0.721,0.722l-1.752,1.751l-0.722-0.721c-5.626-5.627-5.625-14.781,0-20.408c5.627-5.625,14.781-5.626,20.407,0l24.323,24.323  l-1.752,1.752L38.921,22.483z M36.447,26.399L25.934,36.911l-0.721-0.721c-2.899-2.899-2.899-7.615-0.001-10.514  c2.898-2.898,7.614-2.898,10.513,0.002L36.447,26.399z M83.753,84.218c-8.353,8.354-21.946,8.354-30.3,0l-0.909-0.813  c-0.198-0.199-1.873-1.863-3.107-4.434c-1.151,2.43-2.679,4.096-3.094,4.525l-0.722,0.722c-8.354,8.354-21.948,8.354-30.302,0  c-8.354-8.354-8.354-21.947,0-30.303l24.323-24.321l1.752,1.753L17.072,55.669c-7.389,7.389-7.389,19.409,0,26.797  c7.388,7.389,19.408,7.389,26.796,0l0.761-0.762c1.918-1.991,3.366-5.064,3.473-8.229c0-0.093,0.007-0.186,0.009-0.277  c0.022-2.474-0.788-4.981-2.86-7.055c-1.284-1.284-3.86-3.86-3.86-3.86l-0.371-0.395l-6.942-6.941l1.752-1.753l9.693,9.693  l0.813,0.828c1.438,1.439,2.459,2.871,3.161,4.269c0.705-1.348,1.705-2.73,3.102-4.128l0.134-0.148l24.324-24.322  c4.659-4.66,4.659-12.244-0.001-16.904c-4.659-4.66-12.242-4.66-16.902,0l-0.722,0.723l-1.751-1.752l0.721-0.723  c5.625-5.625,14.781-5.625,20.406,0c5.627,5.627,5.627,14.781,0,20.406L54.482,65.46l-0.767,0.77  c-4.868,4.868-2.956,11.839,0.604,15.397l0.886,0.839c7.388,7.389,19.408,7.389,26.796,0c7.389-7.388,7.389-19.408,0-26.797  l-0.722-0.722l1.752-1.753l0.722,0.723C92.107,62.271,92.107,75.863,83.753,84.218z"></path></g><g id="SvgjsG1951" featureKey="nameFeature-0" transform="matrix(1.0264832876159622,0,0,1.0264832876159622,0.041059781812782394,110.67953182676152)" fill="#111111"><path d="M12.84 17.24 l3.56 -8.12 l15.32 30.88 l-7.52 0 z M6.24 32.08 c-0.53332 0.98668 -1.1334 1.9466 -1.8 2.8799 c-0.56 0.8 -1.22 1.66 -1.98 2.58 s-1.5933 1.74 -2.5 2.46 l6.68 0 l6.64 0 c-1.0667 -0.61332 -2.0267 -1.3666 -2.88 -2.26 s-1.5866 -1.7666 -2.2 -2.62 c-0.72 -0.98668 -1.3733 -2 -1.96 -3.04 z M46.76 26.119999999999997 c1.2267 0.50668 2.32 1.1533 3.28 1.94 s1.76 1.68 2.4 2.68 s1.1133 2.0867 1.42 3.26 s0.42 2.3733 0.34 3.6 l-12.04 -4.84 l0 -0.04 c-1.2 -0.48 -2.28 -1.12 -3.24 -1.92 s-1.7667 -1.7 -2.42 -2.7 s-1.1333 -2.08 -1.44 -3.24 s-0.40668 -2.3667 -0.3 -3.62 z M53.599999999999994 27.08 c-0.8 -1.44 -1.7733 -2.6667 -2.92 -3.68 s-2.2667 -1.8533 -3.36 -2.52 c-1.28 -0.77332 -2.5867 -1.4266 -3.92 -1.96 l10.2 0 l0 8.16 z M34.72 31.4 c0.77332 1.44 1.7267 2.6933 2.86 3.76 s2.2333 1.96 3.3 2.68 c1.2533 0.85332 2.5333 1.56 3.84 2.12 l-10 0 l0 -8.56 z M72.64 40.2 l-7.44 -7.96 l0 7.84 l-7 0 l0 -21.16 c0 -1.0133 -0.08668 -1.84 -0.26 -2.48 s-0.36664 -1.1467 -0.57996 -1.52 c-0.26668 -0.42668 -0.54668 -0.73336 -0.84 -0.92004 c1.2533 -0.53332 2.4066 -1.0866 3.46 -1.66 s1.9666 -1.1 2.74 -1.58 c0.90668 -0.53332 1.7334 -1.0666 2.48 -1.6 l0 20.84 l3.2 -3.72 l12.68 13.92 l-8.44 0 z M74.28 24.64 c-0.45332 -0.50668 -0.89332 -0.84656 -1.32 -1.0199 s-0.81336 -0.27332 -1.16 -0.3 c-0.4 -0.02668 -0.77332 0.04 -1.12 0.2 c0.21332 -0.50668 0.49332 -1 0.84 -1.48 c0.29332 -0.4 0.68 -0.82 1.16 -1.26 s1.0667 -0.82 1.76 -1.14 c2.0267 -0.96 3.6267 -0.73332 4.8 0.68 c0.61332 0.69332 0.88664 1.4866 0.81996 2.38 s-0.44668 1.6466 -1.14 2.26 s-1.4866 0.88664 -2.38 0.81996 s-1.6466 -0.44668 -2.26 -1.14 z M106.2 31.48 l-4.16 8.44 l-15 -29.8 l8 0 z M111 18.28 c-0.18668 -1.04 -0.53332 -2.0668 -1.04 -3.0802 c-0.45332 -0.85332 -1.1 -1.7466 -1.94 -2.68 s-1.98 -1.7466 -3.42 -2.44 l6.64 0 l6.68 0 c-1.2 0.82668 -2.2333 1.7134 -3.1 2.66 s-1.58 1.8334 -2.14 2.66 c-0.69332 0.96 -1.2533 1.92 -1.68 2.88 z M113.56000000000002 25.16 c-0.72 -1.68 -0.23996 -3.2267 1.44 -4.64 c0.58668 -0.48 1.18 -0.84668 1.78 -1.1 s1.1533 -0.43332 1.66 -0.54 c0.58668 -0.10668 1.1467 -0.16 1.68 -0.16 c-0.29332 0.26668 -0.52 0.58668 -0.68 0.96 c-0.13332 0.32 -0.21332 0.71332 -0.24 1.18 s0.10664 1.0067 0.39996 1.62 c0.18668 0.4 0.28668 0.82 0.3 1.26 s-0.06 0.86 -0.22 1.26 s-0.38668 0.76 -0.68 1.08 s-0.65332 0.57332 -1.08 0.76 c-0.4 0.18668 -0.82 0.28 -1.26 0.28 s-0.86 -0.07332 -1.26 -0.22 s-0.76 -0.36668 -1.08 -0.66 s-0.57332 -0.65332 -0.76 -1.08 z M118.76 39.92 l3.08 0 c-1.0933 -0.37332 -1.9866 -1.04 -2.68 -2 s-1.04 -2.0533 -1.04 -3.28 s0.34668 -2.32 1.04 -3.28 s1.5866 -1.6267 2.68 -2 l-3.52 0 c-1.36 0 -2.5 0.17332 -3.42 0.52 s-1.6467 0.78 -2.18 1.3 s-0.91332 1.0867 -1.14 1.7 s-0.34 1.2 -0.34 1.76 c0 0.58668 0.1 1.1867 0.3 1.8 s0.56668 1.18 1.1 1.7 s1.26 0.94668 2.18 1.28 s2.0867 0.5 3.5 0.5 l0.44 0 z M126.72000000000001 19.04 l-0.36 -0.08 l0 9.2 l0 11.84 l7.32 0 l0 -11.28 c0 -1.1733 -0.18668 -2.2933 -0.56 -3.36 s-0.88 -2.0267 -1.52 -2.88 s-1.38 -1.58 -2.22 -2.18 s-1.7267 -1.02 -2.66 -1.26 z M160.04000000000002 40 l-7.12 0 l0 -21.08 l7.12 0 l0 21.08 z M145.92000000000002 39.2 c-0.93332 -0.24 -1.82 -0.66 -2.66 -1.26 s-1.58 -1.3267 -2.22 -2.18 s-1.1467 -1.8133 -1.52 -2.88 s-0.56 -2.1867 -0.56 -3.36 l0 -10.64 l7.32 0 l0 11.2 l0 9.2 c-0.08 0 -0.2 -0.02668 -0.36 -0.08 z M164.52 13.920000000000002 c1.2267 -0.53332 2.3732 -1.0867 3.4399 -1.66 s1.9867 -1.1 2.76 -1.58 c0.90668 -0.53332 1.7334 -1.0666 2.48 -1.6 l0 30.92 l-7 0 l0 -21.16 c0 -1.0133 -0.08668 -1.84 -0.26 -2.48 s-0.36664 -1.1467 -0.57996 -1.52 c-0.26668 -0.42668 -0.54668 -0.73336 -0.84 -0.92004 z M193.64000000000001 18.56 l0 8.68 l-0.16 0 c-0.18668 -0.26668 -0.48668 -0.71336 -0.9 -1.34 s-0.96 -1.34 -1.64 -2.14 s-1.5067 -1.64 -2.48 -2.52 s-2.1133 -1.7067 -3.42 -2.48 l0 -0.2 l8.6 0 z M176.48000000000002 17.16 c1.0133 -0.53332 2.0533 -1.1467 3.12 -1.84 c0.90668 -0.61332 1.9067 -1.3533 3 -2.22 s2.1733 -1.86 3.24 -2.98 l0 13.32 l0 6.56 c0 0.93332 0.12668 1.78 0.38 2.54 s0.59332 1.4533 1.02 2.08 s0.90668 1.18 1.44 1.66 s1.08 0.89332 1.64 1.24 c1.3067 0.85332 2.8 1.5066 4.48 1.96 c-1.0667 0.18668 -2.1334 0.33336 -3.2 0.44004 c-0.93332 0.08 -1.94 0.10668 -3.02 0.08 s-2.1 -0.16 -3.06 -0.4 c-0.93332 -0.24 -1.8066 -0.68 -2.62 -1.32 s-1.52 -1.42 -2.12 -2.34 s-1.0733 -1.94 -1.42 -3.06 s-0.52 -2.2667 -0.52 -3.44 l0 -6.36 c0 -1.36 -0.12668 -2.4267 -0.38 -3.2 s-0.52664 -1.36 -0.81996 -1.76 c-0.34668 -0.48 -0.73336 -0.8 -1.16 -0.96 z"></path></g>
			</g>
		</svg>
	